<svg width="487" height="475" viewBox="0 0 487 475" fill="none" xmlns="http://www.w3.org/2000/svg">
<path d="M486.171 289.209L444.196 105.892C442.059 96.6575 435.801 88.7967 427.253 84.7518L256.91 3.0909C248.439 -1.0303 238.441 -1.0303 229.969 3.0909L59.7027 84.7518C51.1551 88.873 44.9732 96.6575 42.76 105.892L0.784794 289.209C-1.35213 298.444 0.93744 308.213 6.89029 315.692L124.65 462.758C130.603 470.161 139.532 474.434 148.995 474.434H338.037C347.5 474.434 356.429 470.161 362.382 462.758L480.142 315.692C486.095 308.289 488.308 298.52 486.247 289.209H486.171ZM439.846 306.534L344.371 425.743C338.418 433.146 329.489 437.42 320.025 437.42H166.778C157.314 437.42 148.385 433.146 142.432 425.743L46.9575 306.534C41.0047 299.131 38.7914 289.362 40.852 280.051L74.8901 131.459C77.027 122.224 83.2852 114.363 91.8329 110.319L229.817 44.1503C238.288 40.0291 248.286 40.0291 256.757 44.1503L394.741 110.319C403.289 114.44 409.547 122.224 411.684 131.459L445.722 280.051C447.859 289.286 445.569 299.131 439.617 306.534H439.846Z" fill="url(#paint0_linear_559_904)"/>
<path d="M445.951 280.127L411.913 131.535C409.776 122.301 403.518 114.44 394.97 110.395L256.986 44.2266C248.515 40.1054 238.517 40.1054 230.046 44.2266L92.0618 110.395C83.5141 114.516 77.3323 122.301 75.1191 131.535L41.081 280.127C38.9441 289.362 41.2336 299.207 47.1865 306.61L142.661 425.82C148.614 433.222 157.543 437.496 167.007 437.496H320.254C329.718 437.496 338.647 433.222 344.6 425.82L440.074 306.61C446.027 299.207 448.241 289.438 446.18 280.127H445.951ZM415.576 301.115L355.971 375.602L333.61 403.458C327.657 410.861 318.728 415.135 309.264 415.135H177.691C175.554 415.135 173.494 414.83 171.433 414.448H171.357C170.746 414.295 170.212 414.143 169.678 413.99C168.151 413.532 166.701 413.074 165.328 412.464C164.717 412.235 164.183 412.006 163.649 411.701C161.817 410.785 159.985 409.716 158.383 408.419C158.077 408.19 157.848 407.885 157.619 407.656C156.093 406.358 154.643 404.985 153.346 403.458L116.484 357.438L107.936 346.753L71.4558 301.115C65.5029 293.712 63.2897 283.943 65.3503 274.709L71.0742 249.829L94.5803 147.18C96.7935 137.87 102.975 130.085 111.523 125.964L229.969 69.1065H230.046C238.517 65.0616 248.515 65.0616 256.986 69.1065L375.509 125.964C384.057 130.085 390.315 137.87 392.452 147.18L421.605 274.709C423.742 283.943 421.453 293.712 415.576 301.115Z" fill="white"/>
<path d="M177.691 415.135C170.594 415.135 163.801 412.693 158.306 408.419C163.801 412.769 170.594 415.135 177.691 415.135Z" fill="#261658"/>
<path d="M65.3503 288.599C64.8161 286.309 64.5871 284.02 64.5871 281.654C64.5871 284.02 64.8924 286.309 65.3503 288.599Z" fill="#261658"/>
<path d="M421.605 274.709L392.375 147.18C390.238 137.946 383.98 130.085 375.433 126.04L256.986 69.1828C248.515 65.0616 238.517 65.0616 230.046 69.1828L111.599 126.04C103.052 130.161 96.8699 137.946 94.6566 147.18L71.1505 249.905L81.2246 205.869C95.5725 193.735 111.981 183.508 130.297 175.8C223.253 137.03 329.184 178.853 366.885 269.214C377.341 294.17 381.385 320.271 379.935 345.761L352.384 380.181L415.653 301.191C421.605 293.788 423.819 284.02 421.758 274.709H421.605ZM310.257 155.728C306.899 159.01 301.48 158.933 298.275 155.499C294.993 152.141 295.069 146.722 298.504 143.517C301.938 140.312 307.28 140.312 310.486 143.746C313.767 147.104 313.691 152.523 310.257 155.728ZM346.355 211.059C344.676 212.662 342.005 212.662 340.326 210.983C338.723 209.304 338.723 206.633 340.402 204.954C342.081 203.351 344.753 203.351 346.432 205.03C348.034 206.709 348.034 209.38 346.355 211.059ZM366.351 175.876H367.953L359.253 190.148L350.553 175.876L336.281 167.939L350.553 159.239L358.49 145.807L366.427 159.239L380.699 167.939L366.427 175.876H366.351Z" fill="#261658"/>
<path d="M205.166 213.425C206.082 217.012 206.692 221.133 207.15 225.483C206.769 221.133 206.082 217.012 205.166 213.425Z" fill="#323232"/>
<path d="M169.449 413.837C170.059 413.99 170.746 414.219 171.357 414.372C170.67 414.219 170.059 413.99 169.449 413.837Z" fill="#323232"/>
<path d="M165.633 412.54C164.641 412.158 163.725 411.701 162.809 411.166C163.725 411.701 164.717 412.158 165.633 412.54Z" fill="#323232"/>
<path d="M366.809 269.137C329.107 178.776 223.177 136.954 130.221 175.724C111.905 183.355 95.4961 193.582 81.1483 205.793L65.3503 274.632C63.2134 283.867 65.5029 293.636 71.4558 301.115L116.484 357.362C114.728 352.325 113.431 347.135 112.592 341.793C110.836 330.879 111.218 319.508 113.507 308.06L113.965 305.618L90.917 308.747L87.9406 295.238L84.5826 279.898L118.239 285.775L119.079 286.538C118.621 292.338 119.231 298.139 121.063 303.786C127.016 322.637 145.79 335.535 165.709 334.39H166.396C176.699 333.627 185.705 329.582 193.26 322.331C195.245 320.424 197.229 318.287 199.06 315.921C199.976 314.776 200.739 313.479 201.426 312.181C201.732 311.571 202.113 310.96 202.418 310.349C206.387 302.947 212.035 296.765 218.903 292.186C224.932 288.141 231.877 285.317 239.433 284.02L323.612 262.65L316.515 316.073L296.061 316.608L296.748 318.821C297.664 321.645 298.351 324.01 298.732 326.529C298.961 327.903 299.114 329.353 299.267 330.803C299.648 336.145 297.969 344.082 296.672 349.348C295.909 352.783 295.222 355.148 295.222 355.072C287.132 382.013 267.671 404.069 242.18 415.059H309.341C318.804 415.059 327.734 410.785 333.686 403.382L379.859 345.685C381.309 320.195 377.264 294.094 366.809 269.137ZM234.243 276.464C232.335 276.922 230.809 277.532 228.977 278.143C215.011 282.798 202.953 291.499 195.55 304.091L158.001 313.936L142.203 240.442L138.311 222.202L165.709 226.857L157.925 191.521L155.483 180.608L178.454 184.653L177.462 170.305L188.986 169.465L190.207 186.713L212.874 190.682L215.24 224.338L193.031 227.391L193.337 231.665L236.609 239.068L236.838 275.777L234.243 276.464Z" fill="#D2C4F4"/>
<path d="M179.218 229.223L181.583 229.681V228.918L179.218 229.223Z" fill="#323232"/>
<path d="M118.239 285.851L119.079 286.614C118.621 292.415 119.231 298.215 121.063 303.862C127.016 322.713 145.79 335.611 165.709 334.466H166.396C176.699 333.703 185.705 329.658 193.26 322.408C195.244 320.5 197.229 318.363 199.06 315.997C199.976 314.852 200.739 313.555 201.426 312.257C201.732 311.647 202.113 311.036 202.418 310.426C206.387 303.023 212.035 296.841 218.903 292.262C224.932 288.217 231.877 285.393 239.433 284.096L289.651 271.351C267.06 241.892 230.656 225.865 193.108 228.383L193.337 231.589L236.609 238.992L236.838 275.701L234.243 276.388C232.335 276.846 230.809 277.456 228.977 278.067C215.011 282.722 202.953 291.423 195.55 304.015L158.001 313.86L142.814 243.342C125.566 253.187 111.676 266.848 101.754 282.798L118.086 285.622L118.239 285.851Z" fill="#DFD7F8"/>
<path d="M112.591 341.793C110.836 330.879 111.218 319.508 113.507 308.06L113.965 305.618L90.917 308.747L90.5354 307.068C89.0854 311.494 87.8643 315.997 86.9485 320.576L116.407 357.362C114.652 352.325 113.355 347.135 112.515 341.793H112.591Z" fill="#DFD7F8"/>
<path d="M171.357 414.372C170.67 414.219 170.059 413.99 169.449 413.837C170.059 413.99 170.746 414.219 171.357 414.372Z" fill="#595959"/>
<path d="M295.985 316.76L296.672 318.974C297.588 321.797 298.275 324.163 298.656 326.682C298.885 328.055 299.038 329.505 299.19 330.956C299.572 336.298 297.893 344.235 296.596 349.501C295.832 352.935 295.146 355.301 295.146 355.225C287.056 382.165 267.595 404.221 242.104 415.211H279.958C305.22 389.11 316.896 352.248 309.875 316.455L295.985 316.837V316.76Z" fill="#DFD7F8"/>
<path d="M162.809 411.166C163.725 411.701 164.717 412.158 165.633 412.54C164.641 412.158 163.725 411.701 162.809 411.166Z" fill="#595959"/>
<path d="M165.633 334.466H166.32C176.623 333.703 185.628 329.658 193.184 322.408C195.168 320.5 197.152 318.363 198.984 315.997C199.9 314.852 200.663 313.555 201.35 312.257C201.655 311.647 202.037 311.036 202.342 310.426C206.311 303.023 211.958 296.841 218.827 292.262C221.04 290.812 223.406 289.515 225.848 288.446C222.643 286.691 219.285 285.317 215.774 284.249C207.532 289.133 200.434 295.773 195.55 304.168L158.001 314.013L155.177 301.039C148.232 308.899 143.501 318.439 141.516 328.742C148.69 332.787 157.009 335 165.557 334.542L165.633 334.466Z" fill="#EFEBFC"/>
<path d="M366.351 175.8L380.622 167.863L366.351 159.162L358.414 145.73L350.476 159.162L336.205 167.863L350.476 175.8L359.177 190.071L367.877 175.8H366.274H366.351Z" fill="#BFAFF1"/>
<path d="M366.351 175.8L376.654 169.465L365.588 163.131L360.016 152.828L354.445 163.131L343.379 169.465L353.682 175.8L360.016 186.866L366.351 175.8Z" fill="#EFEBFC"/>
<path d="M304.38 158.018C309.059 158.018 312.851 154.225 312.851 149.546C312.851 144.868 309.059 141.075 304.38 141.075C299.701 141.075 295.909 144.868 295.909 149.546C295.909 154.225 299.701 158.018 304.38 158.018Z" fill="#EFEBFC"/>
<path d="M343.455 212.204C345.816 212.204 347.729 210.29 347.729 207.93C347.729 205.57 345.816 203.656 343.455 203.656C341.095 203.656 339.181 205.57 339.181 207.93C339.181 210.29 341.095 212.204 343.455 212.204Z" fill="#BFAFF1"/>
<path d="M193.031 227.391L181.583 228.918V229.681L193.337 231.665L193.031 227.391Z" fill="#43269B"/>
<path d="M190.131 186.713L188.91 169.465L177.386 170.305L178.378 184.653L190.131 186.713Z" fill="#43269B"/>
<path d="M205.547 250.363L142.203 240.518L158.001 314.013L195.55 304.168C202.953 291.575 215.011 282.875 228.977 278.219L228.825 275.625C227.909 262.803 218.293 252.347 205.547 250.363Z" fill="#43269B"/>
<path d="M157.543 407.656C156.017 406.358 154.567 404.985 153.346 403.458C154.643 405.061 156.093 406.358 157.543 407.656Z" fill="#39383F"/>
<path d="M323.536 262.803L321.399 279.059L246.607 296.841C228.977 299.665 214.171 309.357 206.005 323.4C204.861 325.308 203.716 327.216 202.266 328.971C192.726 340.343 180.744 346.525 166.472 347.593H165.786C144.035 348.89 123.581 336.145 117.247 317.295C115.339 311.647 114.652 305.847 115.186 300.047L114.27 299.283L87.9406 295.238L90.917 308.747L113.965 305.618L113.507 308.06C111.141 319.508 110.836 330.879 112.591 341.793C113.431 347.135 114.805 352.325 116.484 357.362L153.346 403.382L128.313 372.168C146.782 393.384 173.494 406.816 202.647 407.198C247.065 407.732 283.927 379.571 298.275 340.648C297.817 343.777 297.13 346.83 296.519 349.348C297.817 344.159 299.496 336.145 299.114 330.803C299.038 329.353 298.809 327.979 298.58 326.529C298.198 324.011 297.511 321.645 296.596 318.821L295.909 316.608L316.362 316.073L323.46 262.65L323.536 262.803ZM116.713 357.743C116.255 356.37 115.721 354.996 115.339 353.546C117.476 357.514 119.842 361.254 122.437 364.917L116.713 357.743Z" fill="#43269B"/>
<path d="M171.357 414.372C173.417 414.83 175.554 415.059 177.691 415.059C175.554 415.059 173.417 414.753 171.357 414.372Z" fill="#39383F"/>
<path d="M207.15 225.407C206.311 216.783 204.632 208.769 201.35 204.954C194.863 197.398 171.357 193.353 157.848 191.521L165.633 226.857L179.141 229.147L215.087 224.262L207.074 225.331L207.15 225.407Z" fill="#43269B"/>
<path d="M155.483 180.684L157.925 191.598C171.433 193.353 194.939 197.474 201.426 205.03C204.708 208.846 206.387 216.783 207.227 225.483L215.24 224.415L212.874 190.758L155.559 180.761L155.483 180.684Z" fill="#6F4AE0"/>
<path d="M138.311 222.278L142.203 240.518L205.548 250.363C218.216 252.347 227.909 262.803 228.825 275.625L228.977 278.219C230.809 277.609 232.335 276.922 234.243 276.54L236.838 275.853L236.609 239.144L138.311 222.354V222.278Z" fill="#6F4AE0"/>
<path d="M114.27 299.283L115.186 300.046C114.652 305.847 115.339 311.647 117.247 317.294C123.658 336.145 144.035 348.89 165.786 347.593H166.472C180.668 346.524 192.726 340.266 202.266 328.971C203.716 327.216 204.861 325.308 206.005 323.4C214.172 309.357 228.977 299.665 246.607 296.841L321.399 279.059L323.536 262.803L239.357 284.172C223.253 286.92 209.745 296.46 202.342 310.502C201.35 312.41 200.282 314.318 198.984 316.073C190.36 327.369 179.37 333.55 166.32 334.466H165.633C145.714 335.611 126.939 322.789 120.987 303.939C119.155 298.291 118.544 292.491 119.002 286.691L118.163 285.928L84.5063 280.051L87.8643 295.391L114.194 299.436L114.27 299.283Z" fill="#6F4AE0"/>
<path d="M202.647 407.198C173.494 406.816 146.782 393.384 128.313 372.168L153.346 403.382C159.298 410.785 168.228 415.059 177.691 415.059H242.104C267.595 404.069 287.056 382.013 295.146 355.072C295.146 355.225 297.206 347.975 298.351 340.648C284.003 379.571 247.065 407.732 202.724 407.198H202.647Z" fill="#261658"/>
<path d="M115.415 353.622C115.797 355.072 116.331 356.37 116.789 357.82L122.513 364.994C119.918 361.407 117.552 357.591 115.415 353.622Z" fill="black"/>
<defs>
<linearGradient id="paint0_linear_559_904" x1="12.5799" y1="112.812" x2="525.402" y2="427.681" gradientUnits="userSpaceOnUse">
<stop offset="0.31" stop-color="#5F36DD"/>
<stop offset="1" stop-color="#261658"/>
</linearGradient>
</defs>
</svg>
