<svg width="1026" height="357" viewBox="0 0 1026 357" fill="none" xmlns="http://www.w3.org/2000/svg">
<path d="M471.668 191.016H470.635L446.421 131.973H423.527V219.821H441.544V162.441H442.29L465.012 219.362H477.291L500.014 162.614H500.702V219.821H518.719V131.973H495.825L471.668 191.016Z" fill="#202526"/>
<path d="M581.091 158.368C578.451 156.589 575.467 155.212 572.139 154.351C568.754 153.49 565.254 153.089 561.582 153.089C556.36 153.089 551.712 153.892 547.696 155.441C543.737 157.048 540.466 159.286 537.941 162.212C535.417 165.138 533.753 168.638 532.892 172.598L549.761 173.975C550.393 171.794 551.655 170.016 553.606 168.524C555.557 167.089 558.196 166.343 561.467 166.343C564.565 166.343 566.975 167.089 568.697 168.581C570.418 170.073 571.221 172.139 571.221 174.893V175.122C571.221 176.557 570.705 177.59 569.615 178.278C568.582 178.967 566.861 179.541 564.508 179.885C562.155 180.287 559.057 180.631 555.27 181.032C551.999 181.377 548.901 181.893 545.917 182.639C542.933 183.385 540.294 184.533 537.999 186.082C535.703 187.574 533.867 189.582 532.49 192.049C531.17 194.574 530.482 197.615 530.482 201.287C530.482 205.648 531.457 209.263 533.351 212.19C535.244 215.059 537.827 217.239 541.155 218.731C544.425 220.223 548.212 220.969 552.401 220.969C555.672 220.969 558.541 220.51 561.008 219.649C563.475 218.788 565.656 217.583 567.434 215.977C569.213 214.427 570.648 212.591 571.68 210.526H572.197V219.649H589.525V175.237C589.525 171.335 588.78 167.95 587.23 165.138C585.738 162.327 583.673 160.032 581.033 158.195L581.091 158.368ZM571.394 196.238C571.394 198.591 570.82 200.656 569.615 202.435C568.467 204.271 566.803 205.763 564.795 206.796C562.729 207.829 560.377 208.403 557.68 208.403C554.983 208.403 552.573 207.714 550.737 206.452C548.901 205.132 547.983 203.296 547.983 200.771C547.983 199.05 548.442 197.615 549.302 196.41C550.163 195.263 551.425 194.345 553.032 193.656C554.639 192.967 556.532 192.451 558.655 192.164C559.631 191.992 560.778 191.82 561.983 191.648C563.246 191.476 564.451 191.246 565.713 191.017C566.918 190.787 568.066 190.5 569.041 190.213C570.016 189.869 570.82 189.582 571.394 189.18V196.181V196.238Z" fill="#202526"/>
<path d="M647.479 165.024H646.79C645.987 163.245 644.782 161.466 643.233 159.572C641.741 157.736 639.675 156.187 637.208 154.925C634.741 153.662 631.642 153.089 627.912 153.089C623.093 153.089 618.617 154.351 614.6 156.818C610.526 159.343 607.313 163.073 604.903 168.065C602.493 173.057 601.288 179.311 601.288 186.77C601.288 194.23 602.493 200.082 604.846 204.845C607.256 209.607 610.469 213.108 614.486 215.403C618.56 217.698 623.035 218.846 627.97 218.846C631.47 218.846 634.454 218.329 636.978 217.296C639.503 216.263 641.569 214.944 643.175 213.28C644.782 211.673 645.987 209.894 646.79 208.116H647.594V220.165C647.594 224.698 646.274 227.912 643.692 229.862C641.11 231.813 637.839 232.731 633.88 232.731C631.183 232.731 628.945 232.387 627.109 231.699C625.273 231.01 623.781 230.092 622.634 228.944C621.543 227.797 620.74 226.534 620.224 225.272L603.297 227.567C604.043 231.01 605.649 234.166 608.174 236.92C610.699 239.674 614.027 241.855 618.215 243.519C622.404 245.125 627.511 245.929 633.421 245.929C639.675 245.929 645.298 245.011 650.118 243.117C654.938 241.224 658.783 238.355 661.479 234.625C664.234 230.838 665.611 226.19 665.611 220.567V154.064H647.479V165.138V165.024ZM645.987 196.582C644.897 199.337 643.29 201.46 641.282 202.951C639.274 204.443 636.749 205.189 633.823 205.189C630.896 205.189 628.314 204.443 626.248 202.894C624.24 201.402 622.634 199.279 621.601 196.525C620.51 193.771 619.994 190.5 619.994 186.713C619.994 182.926 620.51 179.655 621.601 176.786C622.691 173.917 624.183 171.68 626.248 170.073C628.314 168.466 630.839 167.663 633.823 167.663C636.806 167.663 639.274 168.409 641.339 170.016C643.405 171.565 644.954 173.803 646.044 176.672C647.135 179.483 647.651 182.869 647.651 186.713C647.651 190.557 647.135 193.885 645.987 196.64V196.582Z" fill="#202526"/>
<path d="M731.54 161.409C728.728 158.654 725.458 156.531 721.67 155.154C717.883 153.777 713.867 153.089 709.506 153.089C703.022 153.089 697.456 154.523 692.636 157.392C687.817 160.261 684.144 164.22 681.505 169.384C678.865 174.491 677.546 180.459 677.546 187.229C677.546 194 678.865 200.197 681.505 205.247C684.144 210.296 687.874 214.255 692.751 217.009C697.628 219.764 703.481 221.141 710.252 221.141C715.703 221.141 720.466 220.28 724.654 218.616C728.786 216.952 732.228 214.599 734.868 211.558C737.507 208.575 739.286 205.017 740.147 200.943L723.22 199.796C722.589 201.46 721.671 202.837 720.466 203.984C719.261 205.132 717.826 205.993 716.105 206.566C714.441 207.14 712.547 207.427 710.539 207.427C707.498 207.427 704.858 206.796 702.62 205.534C700.383 204.214 698.661 202.435 697.456 200.025C696.251 197.673 695.62 194.861 695.62 191.59L740.491 191.533V186.541C740.491 180.918 739.688 176.04 738.138 171.852C736.589 167.663 734.351 164.163 731.54 161.409ZM695.735 180.229C695.85 177.877 696.424 175.696 697.514 173.745C698.719 171.622 700.383 169.901 702.506 168.638C704.629 167.376 707.096 166.745 709.85 166.745C712.605 166.745 714.842 167.319 716.851 168.466C718.859 169.614 720.466 171.221 721.613 173.229C722.761 175.237 723.335 177.59 723.335 180.229H695.735Z" fill="#202526"/>
<path d="M770.615 131.973H752.369V219.821H770.615V131.973Z" fill="#202526"/>
<path d="M803.494 131.973H785.247V219.821H803.494V131.973Z" fill="#202526"/>
<path d="M865.521 158.368C862.882 156.589 859.898 155.212 856.57 154.351C853.185 153.49 849.684 153.089 846.012 153.089C840.791 153.089 836.143 153.892 832.126 155.441C828.167 157.048 824.896 159.286 822.372 162.212C819.847 165.138 818.183 168.638 817.322 172.598L834.192 173.975C834.823 171.794 836.085 170.016 838.036 168.524C839.987 167.089 842.627 166.343 845.897 166.343C848.996 166.343 851.406 167.089 853.127 168.581C854.849 170.073 855.652 172.139 855.652 174.893V175.122C855.652 176.557 855.135 177.59 854.045 178.278C852.955 178.967 851.291 179.541 848.938 179.885C846.586 180.287 843.487 180.631 839.7 181.032C836.43 181.377 833.331 181.893 830.347 182.639C827.364 183.385 824.724 184.533 822.429 186.082C820.134 187.574 818.298 189.582 816.921 192.049C815.601 194.574 814.912 197.615 814.912 201.287C814.912 205.648 815.888 209.263 817.781 212.19C819.675 215.059 822.257 217.239 825.585 218.731C828.856 220.223 832.643 220.969 836.831 220.969C840.102 220.969 842.971 220.51 845.438 219.649C847.906 218.788 850.086 217.583 851.865 215.977C853.644 214.427 855.021 212.591 856.111 210.526H856.627V219.649H873.956V175.237C873.956 171.335 873.21 167.95 871.661 165.138C870.169 162.327 868.103 160.032 865.464 158.195L865.521 158.368ZM855.824 196.238C855.824 198.591 855.25 200.656 854.045 202.435C852.898 204.271 851.234 205.763 849.225 206.796C847.16 207.829 844.807 208.403 842.11 208.403C839.413 208.403 837.003 207.714 835.167 206.452C833.331 205.132 832.413 203.296 832.413 200.771C832.413 199.05 832.872 197.615 833.733 196.41C834.594 195.263 835.856 194.345 837.463 193.656C839.069 192.967 840.963 192.451 843.086 192.164C844.061 191.992 845.209 191.82 846.414 191.648C847.676 191.476 848.881 191.246 850.086 191.017C851.291 190.787 852.439 190.5 853.414 190.213C854.389 189.869 855.193 189.582 855.767 189.18V196.181L855.824 196.238Z" fill="#202526"/>
<path d="M938.106 156.072C934.721 154.064 930.704 153.089 926.114 153.089C921.237 153.089 917.048 154.236 913.605 156.474C910.162 158.712 907.752 161.753 906.261 165.597H905.515V154.007H888.129V219.878H906.375V181.778C906.375 178.967 906.949 176.557 907.982 174.549C909.015 172.54 910.507 170.991 912.343 169.901C914.236 168.868 916.359 168.352 918.827 168.352C922.499 168.352 925.368 169.499 927.434 171.737C929.499 174.032 930.532 177.188 930.532 181.205V219.878H948.779V177.934C948.779 172.827 947.861 168.409 945.967 164.737C944.074 161.007 941.434 158.138 938.049 156.187L938.106 156.072Z" fill="#202526"/>
<path d="M1021.48 169.27C1018.84 164.163 1015.11 160.204 1010.23 157.335C1005.41 154.523 999.617 153.089 992.961 153.089C986.305 153.089 980.567 154.523 975.69 157.335C970.812 160.204 967.083 164.163 964.443 169.27C961.804 174.376 960.484 180.344 960.484 187.115C960.484 193.885 961.804 199.738 964.443 204.902C967.083 210.009 970.812 213.968 975.69 216.837C980.51 219.649 986.305 221.141 992.961 221.141C999.617 221.141 1005.41 219.706 1010.23 216.837C1015.11 213.968 1018.84 210.009 1021.48 204.902C1024.12 199.796 1025.44 193.828 1025.44 187.115C1025.44 180.401 1024.12 174.319 1021.48 169.27ZM1005.3 197.271C1004.26 200.255 1002.72 202.665 1000.71 204.386C998.699 206.107 996.174 206.968 993.133 206.968C990.092 206.968 987.51 206.107 985.444 204.386C983.379 202.665 981.829 200.312 980.796 197.271C979.764 194.23 979.247 190.844 979.247 187C979.247 183.155 979.764 179.77 980.796 176.786C981.829 173.803 983.379 171.393 985.444 169.671C987.51 167.95 990.092 167.032 993.133 167.032C996.174 167.032 998.699 167.893 1000.71 169.671C1002.72 171.393 1004.26 173.803 1005.3 176.786C1006.33 179.77 1006.85 183.155 1006.85 187C1006.85 190.844 1006.33 194.23 1005.3 197.271Z" fill="#202526"/>
<path d="M365.535 217.623L333.975 79.6811C332.368 72.7323 327.663 66.8173 321.236 63.7736L193.161 2.32583C186.792 -0.775275 179.275 -0.775275 172.906 2.32583L44.8884 63.7736C38.4617 66.8747 33.8138 72.7323 32.1497 79.6811L0.590059 217.623C-1.01662 224.571 0.704828 231.922 5.18056 237.55L93.7198 348.214C98.1955 353.784 104.909 357 112.024 357H254.158C261.273 357 267.987 353.784 272.462 348.214L361.001 237.55C365.477 231.98 367.141 224.629 365.592 217.623H365.535ZM330.704 230.659L258.92 320.361C254.445 325.932 247.731 329.148 240.616 329.148H125.394C118.279 329.148 111.565 325.932 107.09 320.361L35.3057 230.659C30.83 225.088 29.1659 217.738 30.7152 210.731L56.3072 98.9194C57.9139 91.9706 62.6192 86.0556 69.0459 83.0119L172.791 33.222C179.16 30.1209 186.677 30.1209 193.047 33.222L296.792 83.0119C303.219 86.113 307.924 91.9706 309.531 98.9194L335.123 210.731C336.729 217.68 335.008 225.088 330.532 230.659H330.704Z" fill="#202526"/>
<path d="M154.257 160.597C154.946 163.296 155.405 166.397 155.749 169.67C155.462 166.397 154.946 163.296 154.257 160.597Z" fill="#202526"/>
<path d="M127.403 311.402C127.862 311.517 128.378 311.689 128.837 311.804C128.321 311.689 127.862 311.517 127.403 311.402Z" fill="#202526"/>
<path d="M124.533 310.426C123.788 310.139 123.099 309.794 122.41 309.392C123.099 309.794 123.845 310.139 124.533 310.426Z" fill="#202526"/>
<path fill-rule="evenodd" clip-rule="evenodd" d="M295.013 110.749L316.99 206.711H317.105C318.654 213.718 316.99 221.068 312.514 226.639L264.945 286.077L285.66 260.177C286.75 240.996 283.709 221.355 275.848 202.577C269.142 186.491 259.565 172.449 247.925 160.771C259.539 172.438 269.095 186.46 275.79 202.519C283.652 221.298 286.693 240.938 285.602 260.119L250.887 303.535C246.411 309.105 239.698 312.321 232.582 312.321H182.087C201.252 304.051 215.884 287.455 221.967 267.183C221.967 267.24 222.483 265.46 223.057 262.876C224.032 258.913 225.295 252.941 225.008 248.921C224.893 247.83 224.778 246.738 224.606 245.705C224.319 243.81 223.803 242.029 223.114 239.905L222.598 238.239L237.976 237.837L243.313 197.638L180.021 213.717C174.34 214.694 169.119 216.819 164.586 219.862C159.421 223.308 155.175 227.96 152.191 233.53C152.076 233.76 151.947 233.989 151.818 234.219C151.689 234.449 151.56 234.679 151.445 234.908C150.929 235.885 150.355 236.861 149.666 237.722C148.289 239.503 146.797 241.111 145.305 242.546C139.625 248.002 132.854 251.046 125.107 251.62H124.591C109.614 252.481 95.4985 242.776 91.0228 228.591C89.6456 224.342 89.1866 219.977 89.5309 215.613L88.8997 215.038L63.5946 210.616L66.1193 222.159L68.3572 232.324L85.6863 229.97L85.342 231.807C83.6206 240.421 83.3337 248.978 84.6535 257.19C85.2847 261.21 86.2602 265.115 87.5799 268.906L53.725 226.581C51.2655 223.489 49.6377 219.876 48.9369 216.095C48.9972 216.452 49.0634 216.807 49.1345 217.163C48.8726 216.04 48.7083 214.917 48.6257 213.778C48.4276 211.412 48.5898 209.01 49.1345 206.654L61.0124 154.854C61.0423 154.828 61.0722 154.803 61.1022 154.778L71.1688 110.749C72.8328 103.801 77.4807 97.9431 83.9074 94.842L172.963 52.0582C179.332 48.9571 186.849 48.9571 193.219 52.0582L282.274 94.842C288.701 97.8856 293.406 103.801 295.013 110.749ZM224.262 117.009C226.672 119.593 230.746 119.651 233.271 117.181C235.853 114.769 235.91 110.692 233.443 108.165C231.033 105.581 227.016 105.581 224.434 107.993C221.852 110.405 221.794 114.482 224.262 117.009ZM255.879 158.759C257.141 160.023 259.15 160.023 260.412 158.817C261.674 157.553 261.674 155.543 260.469 154.28C259.207 153.016 257.199 153.016 255.936 154.222C254.674 155.486 254.674 157.496 255.879 158.759ZM276.651 132.342H275.503L286.234 126.37L275.503 119.823L269.536 109.716L263.568 119.823L252.838 126.37L263.568 132.342L270.109 143.081L276.651 132.342ZM133.6 312.378C128.263 312.378 123.156 310.541 119.025 307.325C123.156 310.598 128.263 312.378 133.6 312.378ZM173.241 208.924C174.181 208.595 175.074 208.283 176.119 208.032L178.07 207.515L177.898 179.892L145.363 174.322L145.133 171.106L161.831 168.809L160.052 143.483L143.01 140.497L142.092 127.518L133.428 128.15L134.173 138.946L116.902 135.903L118.738 144.115L124.591 170.704L103.991 167.201L106.917 180.926L118.795 236.229L147.027 228.821C152.593 219.345 161.659 212.799 172.16 209.296C172.534 209.171 172.891 209.046 173.241 208.924Z" fill="#202526"/>
<path d="M134.747 172.484L136.526 172.829V172.255L134.747 172.484Z" fill="#202526"/>
<path d="M128.837 311.804C128.321 311.689 127.862 311.517 127.403 311.402C127.862 311.517 128.378 311.689 128.837 311.804Z" fill="#202526"/>
<path d="M122.41 309.392C123.099 309.794 123.845 310.139 124.533 310.426C123.788 310.139 123.099 309.794 122.41 309.392Z" fill="#202526"/>
<path d="M86.7769 266.092C87.0638 267.183 87.4654 268.159 87.8097 269.25L92.1133 274.649C90.1623 271.949 88.3835 269.078 86.7769 266.092Z" fill="#202526"/>
</svg>
