<svg width="1026" height="357" viewBox="0 0 1026 357" fill="none" xmlns="http://www.w3.org/2000/svg">
<path d="M471.668 191.017H470.635L446.421 131.973H423.527V219.821H441.544V162.442H442.29L465.012 219.362H477.291L500.014 162.614H500.702V219.821H518.719V131.973H495.825L471.668 191.017Z" fill="#202526"/>
<path d="M581.091 158.368C578.451 156.589 575.467 155.212 572.139 154.351C568.754 153.49 565.254 153.089 561.582 153.089C556.36 153.089 551.712 153.892 547.696 155.441C543.737 157.048 540.466 159.286 537.941 162.212C535.417 165.138 533.753 168.638 532.892 172.598L549.761 173.975C550.393 171.794 551.655 170.016 553.606 168.524C555.557 167.089 558.196 166.343 561.467 166.343C564.565 166.343 566.975 167.089 568.697 168.581C570.418 170.073 571.221 172.139 571.221 174.893V175.122C571.221 176.557 570.705 177.59 569.615 178.278C568.582 178.967 566.861 179.541 564.508 179.885C562.155 180.287 559.057 180.631 555.27 181.032C551.999 181.377 548.901 181.893 545.917 182.639C542.933 183.385 540.294 184.533 537.999 186.082C535.703 187.574 533.867 189.582 532.49 192.049C531.17 194.574 530.482 197.615 530.482 201.287C530.482 205.648 531.457 209.263 533.351 212.19C535.244 215.059 537.827 217.239 541.155 218.731C544.425 220.223 548.212 220.969 552.401 220.969C555.672 220.969 558.541 220.51 561.008 219.649C563.475 218.788 565.656 217.583 567.434 215.977C569.213 214.427 570.648 212.591 571.68 210.526H572.197V219.649H589.525V175.237C589.525 171.335 588.78 167.95 587.23 165.138C585.738 162.327 583.673 160.032 581.033 158.195L581.091 158.368ZM571.394 196.238C571.394 198.591 570.82 200.656 569.615 202.435C568.467 204.271 566.803 205.763 564.795 206.796C562.729 207.829 560.377 208.403 557.68 208.403C554.983 208.403 552.573 207.714 550.737 206.452C548.901 205.132 547.983 203.296 547.983 200.771C547.983 199.05 548.442 197.615 549.302 196.41C550.163 195.263 551.425 194.345 553.032 193.656C554.639 192.967 556.532 192.451 558.655 192.164C559.631 191.992 560.778 191.82 561.983 191.648C563.246 191.476 564.451 191.246 565.713 191.017C566.918 190.787 568.066 190.5 569.041 190.213C570.016 189.869 570.82 189.582 571.394 189.18V196.181V196.238Z" fill="#202526"/>
<path d="M647.479 165.024H646.79C645.987 163.245 644.782 161.466 643.233 159.573C641.741 157.736 639.675 156.187 637.208 154.925C634.741 153.662 631.642 153.089 627.912 153.089C623.093 153.089 618.617 154.351 614.6 156.818C610.526 159.343 607.313 163.073 604.903 168.065C602.493 173.057 601.288 179.311 601.288 186.77C601.288 194.23 602.493 200.082 604.846 204.845C607.256 209.607 610.469 213.108 614.486 215.403C618.56 217.698 623.035 218.846 627.97 218.846C631.47 218.846 634.454 218.329 636.978 217.296C639.503 216.264 641.569 214.944 643.175 213.28C644.782 211.673 645.987 209.894 646.79 208.116H647.594V220.165C647.594 224.698 646.274 227.912 643.692 229.862C641.11 231.813 637.839 232.731 633.88 232.731C631.183 232.731 628.945 232.387 627.109 231.699C625.273 231.01 623.781 230.092 622.634 228.944C621.543 227.797 620.74 226.534 620.224 225.272L603.297 227.567C604.043 231.01 605.649 234.166 608.174 236.92C610.699 239.674 614.027 241.855 618.215 243.519C622.404 245.125 627.511 245.929 633.421 245.929C639.675 245.929 645.298 245.011 650.118 243.117C654.938 241.224 658.783 238.355 661.479 234.625C664.234 230.838 665.611 226.19 665.611 220.567V154.064H647.479V165.138V165.024ZM645.987 196.582C644.897 199.337 643.29 201.46 641.282 202.951C639.274 204.443 636.749 205.189 633.823 205.189C630.896 205.189 628.314 204.443 626.248 202.894C624.24 201.402 622.634 199.279 621.601 196.525C620.51 193.771 619.994 190.5 619.994 186.713C619.994 182.926 620.51 179.655 621.601 176.786C622.691 173.917 624.183 171.68 626.248 170.073C628.314 168.466 630.839 167.663 633.823 167.663C636.806 167.663 639.274 168.409 641.339 170.016C643.405 171.565 644.954 173.803 646.044 176.672C647.135 179.483 647.651 182.869 647.651 186.713C647.651 190.558 647.135 193.885 645.987 196.64V196.582Z" fill="#202526"/>
<path d="M731.54 161.409C728.728 158.654 725.458 156.531 721.67 155.154C717.883 153.777 713.867 153.089 709.506 153.089C703.022 153.089 697.456 154.523 692.636 157.392C687.817 160.261 684.144 164.22 681.505 169.384C678.865 174.491 677.546 180.459 677.546 187.229C677.546 194 678.865 200.197 681.505 205.247C684.144 210.296 687.874 214.255 692.751 217.009C697.628 219.764 703.481 221.141 710.252 221.141C715.703 221.141 720.466 220.28 724.654 218.616C728.786 216.952 732.228 214.6 734.868 211.558C737.507 208.575 739.286 205.017 740.147 200.943L723.22 199.796C722.589 201.46 721.671 202.837 720.466 203.984C719.261 205.132 717.826 205.993 716.105 206.566C714.441 207.14 712.547 207.427 710.539 207.427C707.498 207.427 704.858 206.796 702.62 205.534C700.383 204.214 698.661 202.435 697.456 200.025C696.251 197.673 695.62 194.861 695.62 191.59L740.491 191.533V186.541C740.491 180.918 739.688 176.04 738.138 171.852C736.589 167.663 734.351 164.163 731.54 161.409ZM695.735 180.229C695.85 177.877 696.424 175.696 697.514 173.745C698.719 171.622 700.383 169.901 702.506 168.639C704.629 167.376 707.096 166.745 709.85 166.745C712.605 166.745 714.842 167.319 716.851 168.466C718.859 169.614 720.466 171.221 721.613 173.229C722.761 175.237 723.335 177.59 723.335 180.229H695.735Z" fill="#202526"/>
<path d="M770.615 131.973H752.369V219.821H770.615V131.973Z" fill="#202526"/>
<path d="M803.494 131.973H785.247V219.821H803.494V131.973Z" fill="#202526"/>
<path d="M865.521 158.368C862.882 156.589 859.898 155.212 856.57 154.351C853.185 153.49 849.684 153.089 846.012 153.089C840.791 153.089 836.143 153.892 832.126 155.441C828.167 157.048 824.896 159.286 822.372 162.212C819.847 165.138 818.183 168.638 817.322 172.598L834.192 173.975C834.823 171.794 836.085 170.016 838.036 168.524C839.987 167.089 842.627 166.343 845.897 166.343C848.996 166.343 851.406 167.089 853.127 168.581C854.849 170.073 855.652 172.139 855.652 174.893V175.122C855.652 176.557 855.135 177.59 854.045 178.278C852.955 178.967 851.291 179.541 848.938 179.885C846.586 180.287 843.487 180.631 839.7 181.032C836.43 181.377 833.331 181.893 830.347 182.639C827.364 183.385 824.724 184.533 822.429 186.082C820.134 187.574 818.298 189.582 816.921 192.049C815.601 194.574 814.912 197.615 814.912 201.287C814.912 205.648 815.888 209.263 817.781 212.19C819.675 215.059 822.257 217.239 825.585 218.731C828.856 220.223 832.643 220.969 836.831 220.969C840.102 220.969 842.971 220.51 845.438 219.649C847.906 218.788 850.086 217.583 851.865 215.977C853.644 214.427 855.021 212.591 856.111 210.526H856.627V219.649H873.956V175.237C873.956 171.335 873.21 167.95 871.661 165.138C870.169 162.327 868.103 160.032 865.464 158.195L865.521 158.368ZM855.824 196.238C855.824 198.591 855.25 200.656 854.045 202.435C852.898 204.271 851.234 205.763 849.225 206.796C847.16 207.829 844.807 208.403 842.11 208.403C839.413 208.403 837.003 207.714 835.167 206.452C833.331 205.132 832.413 203.296 832.413 200.771C832.413 199.05 832.872 197.615 833.733 196.41C834.594 195.263 835.856 194.345 837.463 193.656C839.069 192.967 840.963 192.451 843.086 192.164C844.061 191.992 845.209 191.82 846.414 191.648C847.676 191.476 848.881 191.246 850.086 191.017C851.291 190.787 852.439 190.5 853.414 190.213C854.389 189.869 855.193 189.582 855.767 189.18V196.181L855.824 196.238Z" fill="#202526"/>
<path d="M938.106 156.072C934.721 154.064 930.704 153.089 926.114 153.089C921.237 153.089 917.048 154.236 913.605 156.474C910.162 158.712 907.752 161.753 906.261 165.597H905.515V154.007H888.129V219.878H906.375V181.778C906.375 178.967 906.949 176.557 907.982 174.549C909.015 172.54 910.507 170.991 912.343 169.901C914.236 168.868 916.359 168.352 918.827 168.352C922.499 168.352 925.368 169.499 927.434 171.737C929.499 174.032 930.532 177.188 930.532 181.205V219.878H948.779V177.934C948.779 172.827 947.861 168.409 945.967 164.737C944.074 161.007 941.434 158.138 938.049 156.187L938.106 156.072Z" fill="#202526"/>
<path d="M1021.48 169.27C1018.84 164.163 1015.11 160.204 1010.23 157.335C1005.41 154.523 999.617 153.089 992.961 153.089C986.305 153.089 980.567 154.523 975.69 157.335C970.812 160.204 967.083 164.163 964.443 169.27C961.804 174.376 960.484 180.344 960.484 187.115C960.484 193.886 961.804 199.738 964.443 204.902C967.083 210.009 970.812 213.968 975.69 216.837C980.51 219.649 986.305 221.141 992.961 221.141C999.617 221.141 1005.41 219.706 1010.23 216.837C1015.11 213.968 1018.84 210.009 1021.48 204.902C1024.12 199.796 1025.44 193.828 1025.44 187.115C1025.44 180.401 1024.12 174.319 1021.48 169.27ZM1005.3 197.271C1004.26 200.255 1002.72 202.665 1000.71 204.386C998.699 206.107 996.174 206.968 993.133 206.968C990.092 206.968 987.51 206.107 985.444 204.386C983.379 202.665 981.829 200.312 980.796 197.271C979.764 194.23 979.247 190.844 979.247 187C979.247 183.156 979.764 179.77 980.796 176.786C981.829 173.803 983.379 171.393 985.444 169.671C987.51 167.95 990.092 167.032 993.133 167.032C996.174 167.032 998.699 167.893 1000.71 169.671C1002.72 171.393 1004.26 173.803 1005.3 176.786C1006.33 179.77 1006.85 183.156 1006.85 187C1006.85 190.844 1006.33 194.23 1005.3 197.271Z" fill="#202526"/>
<path d="M365.524 217.44L333.965 79.6141C332.358 72.6712 327.653 66.7611 321.227 63.72L193.156 2.32387C186.787 -0.774624 179.27 -0.774624 172.901 2.32387L44.887 63.72C38.4605 66.8185 33.8128 72.6712 32.1488 79.6141L0.590041 217.44C-1.01659 224.383 0.704807 231.727 5.18041 237.351L93.717 347.921C98.1926 353.487 104.906 356.7 112.021 356.7H254.15C261.265 356.7 267.979 353.487 272.454 347.921L360.991 237.351C365.466 231.785 367.13 224.44 365.581 217.44H365.524ZM330.694 230.465L258.913 320.092C254.437 325.658 247.724 328.871 240.609 328.871H125.391C118.275 328.871 111.562 325.658 107.086 320.092L35.3047 230.465C30.8291 224.899 29.165 217.555 30.7143 210.554L56.3056 98.8363C57.9122 91.8933 62.6173 85.9833 69.0438 82.9421L172.786 33.1941C179.155 30.0956 186.672 30.0956 193.041 33.1941L296.783 82.9421C303.21 86.0406 307.915 91.8933 309.521 98.8363L335.113 210.554C336.719 217.497 334.998 224.899 330.522 230.465H330.694Z" fill="url(#paint0_linear_559_1159)"/>
<path d="M335.285 210.612L309.693 98.8937C308.087 91.9507 303.382 86.0406 296.955 82.9995L193.213 33.2515C186.844 30.153 179.327 30.153 172.958 33.2515L69.216 82.9995C62.7894 86.098 58.1417 91.9507 56.4777 98.8937L30.8864 210.612C29.2798 217.555 31.0012 224.957 35.4768 230.522L107.259 320.149C111.734 325.715 118.448 328.928 125.563 328.928H240.781C247.896 328.928 254.609 325.715 259.085 320.149L330.867 230.522C335.342 224.957 337.006 217.612 335.457 210.612H335.285ZM312.448 226.391L267.634 282.393L250.822 303.337C246.347 308.903 239.633 312.116 232.518 312.116H133.596C131.989 312.116 130.44 311.887 128.891 311.6H128.833C128.374 311.485 127.973 311.37 127.571 311.255C126.423 310.911 125.333 310.567 124.3 310.108C123.841 309.936 123.44 309.764 123.038 309.534C121.661 308.845 120.284 308.042 119.079 307.067C118.849 306.895 118.677 306.665 118.505 306.493C117.357 305.517 116.267 304.485 115.292 303.337L87.5774 268.737L81.1509 260.704L53.7235 226.391C49.2479 220.825 47.5839 213.481 49.1331 206.538L53.4366 187.832L71.1095 110.656C72.7735 103.656 77.4212 97.8035 83.8477 94.705L172.901 51.9572H172.958C179.327 48.9161 186.844 48.9161 193.213 51.9572L282.323 94.705C288.75 97.8035 293.455 103.656 295.062 110.656L316.981 206.538C318.587 213.481 316.866 220.825 312.448 226.391Z" fill="white"/>
<path d="M133.596 312.116C128.259 312.116 123.153 310.28 119.021 307.067C123.153 310.337 128.259 312.116 133.596 312.116Z" fill="#261658"/>
<path d="M49.1331 216.981C48.7315 215.259 48.5593 213.538 48.5593 211.759C48.5593 213.538 48.7888 215.259 49.1331 216.981Z" fill="#261658"/>
<path d="M316.981 206.538L295.004 110.656C293.398 103.714 288.693 97.8035 282.266 94.7623L193.213 52.0146C186.844 48.9161 179.327 48.9161 172.958 52.0146L83.905 94.7623C77.4785 97.8608 72.8308 103.714 71.1668 110.656L53.4939 187.889L61.068 154.781C71.8553 145.658 84.1919 137.969 97.963 132.174C167.851 103.025 247.494 134.469 275.84 202.406C283.701 221.17 286.742 240.793 285.651 259.958L264.937 285.836L312.505 226.448C316.981 220.883 318.645 213.538 317.095 206.538H316.981ZM233.264 117.083C230.739 119.55 226.665 119.493 224.255 116.911C221.788 114.386 221.845 110.312 224.427 107.902C227.01 105.492 231.026 105.492 233.436 108.074C235.903 110.599 235.846 114.673 233.264 117.083ZM260.404 158.683C259.142 159.888 257.134 159.888 255.871 158.626C254.666 157.363 254.666 155.355 255.929 154.093C257.191 152.888 259.199 152.888 260.462 154.15C261.667 155.413 261.667 157.421 260.404 158.683ZM275.438 132.231H276.643L270.102 142.961L263.56 132.231L252.83 126.264L263.56 119.722L269.528 109.624L275.495 119.722L286.225 126.264L275.495 132.231H275.438Z" fill="#261658"/>
<path d="M154.252 160.462C154.941 163.159 155.4 166.257 155.744 169.528C155.457 166.257 154.941 163.159 154.252 160.462Z" fill="#323232"/>
<path d="M127.399 311.141C127.858 311.255 128.374 311.428 128.833 311.542C128.317 311.428 127.858 311.255 127.399 311.141Z" fill="#323232"/>
<path d="M124.53 310.165C123.784 309.878 123.095 309.534 122.407 309.132C123.095 309.534 123.841 309.878 124.53 310.165Z" fill="#323232"/>
<path d="M275.782 202.349C247.437 134.412 167.794 102.968 97.9056 132.116C84.1345 137.854 71.7979 145.543 61.0106 154.724L49.133 206.48C47.5264 213.423 49.2478 220.768 53.7234 226.391L87.5773 268.68C86.2576 264.893 85.2821 260.991 84.6509 256.974C83.3312 248.769 83.6181 240.22 85.3395 231.613L85.6838 229.776L68.3551 232.129L66.1173 221.973L63.5926 210.44L88.897 214.858L89.5282 215.432C89.1839 219.792 89.6429 224.153 91.0201 228.399C95.4957 242.572 109.611 252.269 124.587 251.409H125.103C132.85 250.835 139.62 247.794 145.301 242.343C146.793 240.908 148.285 239.301 149.662 237.523C150.35 236.662 150.924 235.687 151.441 234.711C151.67 234.252 151.957 233.793 152.187 233.334C155.17 227.768 159.416 223.12 164.581 219.678C169.114 216.636 174.335 214.513 180.016 213.538L243.305 197.472L237.969 237.637L222.591 238.039L223.108 239.703C223.796 241.826 224.313 243.605 224.6 245.498C224.772 246.531 224.886 247.621 225.001 248.712C225.288 252.728 224.026 258.696 223.05 262.655C222.477 265.237 221.96 267.016 221.96 266.958C215.878 287.213 201.246 303.796 182.081 312.059H232.575C239.69 312.059 246.404 308.845 250.879 303.28L285.594 259.901C286.684 240.736 283.643 221.112 275.782 202.349ZM176.114 207.857C174.679 208.202 173.532 208.661 172.155 209.12C161.654 212.62 152.588 219.161 147.022 228.629L118.792 236.031L106.914 180.774L103.988 167.061L124.587 170.561L118.734 143.994L116.898 135.789L134.169 138.83L133.424 128.042L142.088 127.411L143.006 140.379L160.048 143.363L161.826 168.667L145.129 170.962L145.358 174.176L177.893 179.741L178.065 207.341L176.114 207.857Z" fill="#D2C4F4"/>
<path d="M134.743 172.339L136.522 172.684V172.11L134.743 172.339Z" fill="#323232"/>
<path d="M88.8969 214.915L89.5281 215.489C89.1838 219.85 89.6428 224.211 91.0199 228.457C95.4955 242.629 109.611 252.327 124.587 251.466H125.103C132.85 250.892 139.62 247.851 145.301 242.4C146.793 240.965 148.285 239.359 149.662 237.58C150.35 236.719 150.924 235.744 151.441 234.768C151.67 234.309 151.957 233.85 152.187 233.391C155.17 227.826 159.416 223.178 164.58 219.735C169.113 216.694 174.335 214.571 180.016 213.595L217.771 204.013C200.787 181.864 173.417 169.815 145.186 171.708L145.358 174.118L177.893 179.684L178.065 207.284L176.114 207.8C174.679 208.144 173.532 208.603 172.155 209.062C161.654 212.563 152.588 219.104 147.022 228.571L118.792 235.973L107.373 182.955C94.4053 190.357 83.9623 200.628 76.5029 212.62L88.7821 214.743L88.8969 214.915Z" fill="#DFD7F8"/>
<path d="M84.6508 256.974C83.3311 248.769 83.618 240.22 85.3394 231.613L85.6837 229.776L68.3551 232.129L68.0682 230.867C66.978 234.195 66.0599 237.58 65.3713 241.023L87.5198 268.68C86.2001 264.893 85.2247 260.991 84.5935 256.974H84.6508Z" fill="#DFD7F8"/>
<path d="M128.833 311.542C128.317 311.428 127.858 311.255 127.399 311.141C127.858 311.255 128.374 311.428 128.833 311.542Z" fill="#595959"/>
<path d="M222.534 238.154L223.05 239.818C223.739 241.941 224.255 243.72 224.542 245.613C224.714 246.646 224.829 247.736 224.944 248.826C225.231 252.843 223.968 258.81 222.993 262.77C222.419 265.352 221.903 267.131 221.903 267.073C215.82 287.328 201.189 303.911 182.024 312.173H210.484C229.477 292.55 238.256 264.835 232.977 237.924L222.534 238.211V238.154Z" fill="#DFD7F8"/>
<path d="M122.406 309.134C123.095 309.535 123.841 309.88 124.53 310.167C123.784 309.88 123.095 309.535 122.406 309.134Z" fill="#595959"/>
<path d="M124.53 251.466H125.046C132.792 250.892 139.563 247.851 145.244 242.4C146.736 240.965 148.227 239.359 149.604 237.58C150.293 236.719 150.867 235.744 151.383 234.768C151.613 234.309 151.9 233.85 152.129 233.391C155.113 227.826 159.359 223.178 164.523 219.735C166.187 218.645 167.966 217.669 169.802 216.866C167.392 215.546 164.867 214.513 162.228 213.71C156.031 217.382 150.695 222.374 147.022 228.686L118.792 236.088L116.669 226.334C111.447 232.244 107.89 239.416 106.398 247.162C111.791 250.204 118.046 251.868 124.472 251.523L124.53 251.466Z" fill="#EFEBFC"/>
<path d="M275.438 132.174L286.168 126.206L275.438 119.665L269.47 109.566L263.503 119.665L252.773 126.206L263.503 132.174L270.044 142.904L276.585 132.174H275.38H275.438Z" fill="#BFAFF1"/>
<path d="M275.438 132.174L283.184 127.411L274.864 122.649L270.675 114.903L266.487 122.649L258.167 127.411L265.913 132.174L270.675 140.494L275.438 132.174Z" fill="#EFEBFC"/>
<path d="M228.846 118.804C232.363 118.804 235.215 115.953 235.215 112.435C235.215 108.918 232.363 106.066 228.846 106.066C225.328 106.066 222.477 108.918 222.477 112.435C222.477 115.953 225.328 118.804 228.846 118.804Z" fill="#EFEBFC"/>
<path d="M258.224 159.544C259.999 159.544 261.437 158.105 261.437 156.331C261.437 154.556 259.999 153.117 258.224 153.117C256.449 153.117 255.011 154.556 255.011 156.331C255.011 158.105 256.449 159.544 258.224 159.544Z" fill="#BFAFF1"/>
<path d="M145.129 170.962L136.522 172.11V172.684L145.359 174.176L145.129 170.962Z" fill="#43269B"/>
<path d="M142.949 140.379L142.031 127.411L133.366 128.042L134.112 138.83L142.949 140.379Z" fill="#43269B"/>
<path d="M154.539 188.234L106.914 180.832L118.792 236.088L147.023 228.686C152.588 219.219 161.654 212.677 172.155 209.177L172.04 207.226C171.352 197.586 164.122 189.725 154.539 188.234Z" fill="#43269B"/>
<path d="M118.448 306.493C117.3 305.517 116.21 304.485 115.292 303.337C116.267 304.542 117.357 305.517 118.448 306.493Z" fill="#39383F"/>
<path d="M243.248 197.587L241.641 209.808L185.409 223.178C172.155 225.301 161.023 232.588 154.884 243.146C154.023 244.58 153.162 246.015 152.072 247.335C144.9 255.884 135.891 260.532 125.161 261.335H124.645C108.291 262.311 92.9137 252.728 88.1512 238.556C86.7167 234.309 86.2003 229.949 86.6019 225.588L85.9134 225.014L66.1174 221.973L68.3552 232.129L85.6838 229.776L85.3396 231.613C83.5608 240.22 83.3313 248.769 84.651 256.974C85.2822 260.991 86.315 264.893 87.5774 268.68L115.292 303.28L96.4712 279.811C110.357 295.763 130.44 305.862 152.359 306.149C185.754 306.55 213.468 285.377 224.255 256.114C223.911 258.466 223.395 260.761 222.936 262.655C223.911 258.753 225.173 252.728 224.887 248.712C224.829 247.622 224.657 246.589 224.485 245.498C224.198 243.605 223.682 241.826 222.993 239.703L222.477 238.039L237.854 237.637L243.191 197.472L243.248 197.587ZM87.7495 268.967C87.4052 267.934 87.0036 266.901 86.7167 265.811C88.3233 268.795 90.1021 271.606 92.053 274.36L87.7495 268.967Z" fill="#43269B"/>
<path d="M128.833 311.542C130.382 311.887 131.989 312.059 133.596 312.059C131.989 312.059 130.382 311.829 128.833 311.542Z" fill="#39383F"/>
<path d="M155.744 169.471C155.113 162.987 153.851 156.962 151.383 154.093C146.506 148.412 128.833 145.371 118.677 143.994L124.53 170.561L134.686 172.282L161.712 168.61L155.687 169.413L155.744 169.471Z" fill="#43269B"/>
<path d="M116.898 135.846L118.735 144.051C128.891 145.371 146.564 148.47 151.441 154.15C153.908 157.019 155.171 162.987 155.802 169.528L161.827 168.725L160.048 143.42L116.956 135.903L116.898 135.846Z" fill="#6F4AE0"/>
<path d="M103.988 167.118L106.914 180.832L154.539 188.234C164.064 189.725 171.352 197.586 172.04 207.226L172.155 209.177C173.532 208.718 174.68 208.202 176.114 207.915L178.065 207.398L177.893 179.799L103.988 167.175V167.118Z" fill="#6F4AE0"/>
<path d="M85.9134 225.014L86.602 225.588C86.2003 229.949 86.7167 234.309 88.1512 238.555C92.9711 252.728 108.291 262.311 124.645 261.335H125.161C135.834 260.532 144.9 255.827 152.072 247.335C153.162 246.015 154.023 244.58 154.884 243.146C161.023 232.588 172.155 225.301 185.409 223.178L241.641 209.808L243.248 197.586L179.958 213.653C167.851 215.718 157.695 222.891 152.129 233.449C151.383 234.883 150.58 236.318 149.605 237.637C143.121 246.13 134.858 250.777 125.046 251.466H124.53C109.554 252.327 95.4384 242.687 90.9628 228.514C89.5857 224.268 89.1267 219.907 89.4709 215.546L88.8398 214.972L63.5354 210.554L66.0601 222.088L85.856 225.129L85.9134 225.014Z" fill="#6F4AE0"/>
<path d="M152.359 306.149C130.44 305.862 110.357 295.763 96.4712 279.811L115.292 303.28C119.767 308.846 126.481 312.059 133.596 312.059H182.024C201.189 303.796 215.821 287.213 221.903 266.958C221.903 267.073 223.452 261.622 224.313 256.114C213.525 285.377 185.754 306.55 152.416 306.149H152.359Z" fill="#261658"/>
<path d="M86.7742 265.868C87.0611 266.958 87.4627 267.934 87.807 269.024L92.1105 274.418C90.1596 271.721 88.3808 268.852 86.7742 265.868Z" fill="black"/>
<defs>
<linearGradient id="paint0_linear_559_1159" x1="9.45813" y1="84.817" x2="395.019" y2="321.548" gradientUnits="userSpaceOnUse">
<stop offset="0.31" stop-color="#5F36DD"/>
<stop offset="1" stop-color="#261658"/>
</linearGradient>
</defs>
</svg>
