<svg width="478" height="414" viewBox="0 0 478 414" fill="none" xmlns="http://www.w3.org/2000/svg">
<path d="M38.2309 370.146H37.4107L18.1813 323.22H0V393.04H14.3081V347.436H14.9005L32.9451 392.675H42.6965L60.7411 347.572H61.2879V393.04H75.596V323.22H57.4147L38.2309 370.146Z" fill="white"/>
<path d="M125.128 344.198C123.031 342.784 120.662 341.69 118.019 341.005C115.331 340.321 112.551 340.002 109.635 340.002C105.488 340.002 101.797 340.641 98.6074 341.872C95.4633 343.149 92.866 344.927 90.861 347.253C88.856 349.579 87.5346 352.361 86.8511 355.508L100.248 356.602C100.749 354.869 101.752 353.455 103.301 352.27C104.85 351.13 106.946 350.537 109.544 350.537C112.004 350.537 113.918 351.13 115.285 352.315C116.652 353.501 117.29 355.143 117.29 357.332V357.514C117.29 358.654 116.88 359.475 116.014 360.022C115.194 360.57 113.827 361.026 111.959 361.299C110.09 361.619 107.63 361.892 104.622 362.211C102.025 362.485 99.5643 362.895 97.1948 363.488C94.8253 364.081 92.7293 364.993 90.9066 366.225C89.0839 367.41 87.6257 369.006 86.5321 370.967C85.4841 372.974 84.9373 375.391 84.9373 378.31C84.9373 381.776 85.7119 384.649 87.2156 386.975C88.7193 389.255 90.7699 390.988 93.4128 392.173C96.0101 393.359 99.0175 393.952 102.344 393.952C104.941 393.952 107.22 393.587 109.179 392.903C111.138 392.219 112.87 391.261 114.283 389.984C115.695 388.753 116.834 387.294 117.655 385.652H118.065V392.903H131.826V357.605C131.826 354.504 131.234 351.814 130.003 349.579C128.818 347.344 127.178 345.52 125.082 344.061L125.128 344.198ZM117.427 374.297C117.427 376.166 116.971 377.808 116.014 379.222C115.103 380.681 113.781 381.867 112.186 382.688C110.546 383.509 108.678 383.965 106.536 383.965C104.394 383.965 102.481 383.417 101.022 382.414C99.5643 381.365 98.8353 379.906 98.8353 377.899C98.8353 376.531 99.1998 375.391 99.8833 374.433C100.567 373.521 101.569 372.792 102.845 372.244C104.121 371.697 105.625 371.287 107.311 371.059C108.085 370.922 108.997 370.785 109.954 370.648C110.956 370.511 111.913 370.329 112.916 370.147C113.872 369.964 114.784 369.736 115.558 369.508C116.333 369.234 116.971 369.006 117.427 368.687V374.251V374.297Z" fill="white"/>
<path d="M177.849 349.488H177.302C176.664 348.074 175.707 346.66 174.477 345.155C173.292 343.696 171.652 342.465 169.692 341.462C167.733 340.458 165.272 340.002 162.31 340.002C158.483 340.002 154.929 341.005 151.739 342.966C148.504 344.973 145.952 347.937 144.038 351.905C142.124 355.872 141.167 360.843 141.167 366.772C141.167 372.7 142.124 377.352 143.992 381.137C145.906 384.922 148.458 387.704 151.648 389.528C154.883 391.353 158.437 392.265 162.356 392.265C165.136 392.265 167.505 391.854 169.51 391.033C171.515 390.212 173.155 389.164 174.431 387.841C175.707 386.564 176.664 385.15 177.302 383.737H177.94V393.313C177.94 396.916 176.892 399.47 174.841 401.021C172.791 402.571 170.194 403.301 167.049 403.301C164.908 403.301 163.131 403.027 161.672 402.48C160.214 401.933 159.03 401.203 158.118 400.291C157.252 399.379 156.615 398.376 156.204 397.372L142.762 399.196C143.354 401.933 144.63 404.441 146.635 406.63C148.64 408.819 151.283 410.552 154.61 411.874C157.936 413.151 161.991 413.79 166.685 413.79C171.652 413.79 176.117 413.06 179.945 411.555C183.773 410.05 186.826 407.77 188.967 404.806C191.154 401.796 192.248 398.102 192.248 393.633V340.777H177.849V349.579V349.488ZM176.664 374.57C175.798 376.759 174.522 378.447 172.928 379.632C171.333 380.818 169.328 381.411 167.004 381.411C164.68 381.411 162.629 380.818 160.989 379.587C159.394 378.401 158.118 376.714 157.298 374.525C156.432 372.336 156.022 369.736 156.022 366.726C156.022 363.716 156.432 361.117 157.298 358.837C158.164 356.557 159.349 354.778 160.989 353.501C162.629 352.224 164.634 351.586 167.004 351.586C169.373 351.586 171.333 352.179 172.973 353.455C174.614 354.687 175.844 356.465 176.71 358.746C177.575 360.98 177.986 363.671 177.986 366.726C177.986 369.782 177.575 372.427 176.664 374.616V374.57Z" fill="white"/>
<path d="M244.605 346.615C242.372 344.426 239.775 342.738 236.767 341.644C233.76 340.549 230.57 340.002 227.107 340.002C221.958 340.002 217.538 341.142 213.71 343.423C209.883 345.703 206.966 348.849 204.87 352.954C202.774 357.013 201.726 361.755 201.726 367.137C201.726 372.518 202.774 377.443 204.87 381.456C206.966 385.47 209.928 388.616 213.801 390.805C217.675 392.994 222.322 394.089 227.699 394.089C232.028 394.089 235.81 393.405 239.137 392.082C242.418 390.76 245.152 388.89 247.248 386.473C249.344 384.101 250.756 381.274 251.44 378.036L237.998 377.124C237.496 378.447 236.767 379.541 235.81 380.453C234.853 381.365 233.714 382.049 232.347 382.505C231.026 382.961 229.522 383.189 227.927 383.189C225.512 383.189 223.416 382.688 221.639 381.684C219.862 380.636 218.495 379.222 217.538 377.306C216.581 375.437 216.08 373.202 216.08 370.603L251.713 370.557V366.589C251.713 362.12 251.075 358.244 249.845 354.915C248.615 351.586 246.838 348.804 244.605 346.615ZM216.171 361.573C216.262 359.703 216.718 357.97 217.583 356.42C218.54 354.732 219.862 353.364 221.548 352.361C223.234 351.358 225.193 350.856 227.38 350.856C229.568 350.856 231.345 351.312 232.94 352.224C234.534 353.136 235.81 354.413 236.722 356.009C237.633 357.605 238.089 359.475 238.089 361.573H216.171Z" fill="white"/>
<path d="M275.636 323.22H261.146V393.04H275.636V323.22Z" fill="white"/>
<path d="M301.746 323.22H287.256V393.04H301.746V323.22Z" fill="white"/>
<path d="M351.004 344.198C348.908 342.784 346.539 341.69 343.896 341.005C341.207 340.321 338.428 340.002 335.511 340.002C331.365 340.002 327.674 340.641 324.484 341.872C321.34 343.149 318.743 344.927 316.738 347.253C314.733 349.579 313.411 352.361 312.728 355.508L326.125 356.602C326.626 354.869 327.628 353.455 329.178 352.27C330.727 351.13 332.823 350.537 335.42 350.537C337.881 350.537 339.795 351.13 341.162 352.315C342.529 353.501 343.167 355.143 343.167 357.332V357.514C343.167 358.654 342.757 359.475 341.891 360.022C341.025 360.57 339.704 361.026 337.835 361.299C335.967 361.619 333.506 361.892 330.499 362.211C327.902 362.485 325.441 362.895 323.072 363.488C320.702 364.081 318.606 364.993 316.783 366.225C314.961 367.41 313.502 369.006 312.409 370.967C311.361 372.974 310.814 375.391 310.814 378.31C310.814 381.776 311.589 384.649 313.092 386.975C314.596 389.255 316.647 390.988 319.289 392.173C321.887 393.359 324.894 393.952 328.221 393.952C330.818 393.952 333.096 393.587 335.056 392.903C337.015 392.219 338.747 391.261 340.159 389.984C341.572 388.753 342.665 387.294 343.531 385.652H343.941V392.903H357.703V357.605C357.703 354.504 357.11 351.814 355.88 349.579C354.695 347.344 353.055 345.52 350.959 344.061L351.004 344.198ZM343.303 374.297C343.303 376.166 342.848 377.808 341.891 379.222C340.979 380.681 339.658 381.867 338.063 382.688C336.423 383.509 334.554 383.965 332.413 383.965C330.271 383.965 328.357 383.417 326.899 382.414C325.441 381.365 324.712 379.906 324.712 377.899C324.712 376.531 325.076 375.391 325.76 374.433C326.444 373.521 327.446 372.792 328.722 372.244C329.998 371.697 331.501 371.287 333.187 371.059C333.962 370.922 334.873 370.785 335.83 370.648C336.833 370.511 337.79 370.329 338.747 370.147C339.704 369.964 340.615 369.736 341.39 369.508C342.164 369.234 342.802 369.006 343.258 368.687V374.251L343.303 374.297Z" fill="white"/>
<path d="M408.647 342.374C405.958 340.777 402.769 340.002 399.123 340.002C395.25 340.002 391.924 340.914 389.19 342.693C386.456 344.471 384.542 346.888 383.357 349.944H382.765V340.732H368.958V393.085H383.448V362.804C383.448 360.57 383.904 358.654 384.724 357.058C385.544 355.462 386.729 354.231 388.187 353.364C389.691 352.543 391.377 352.133 393.336 352.133C396.253 352.133 398.531 353.045 400.171 354.824C401.812 356.648 402.632 359.156 402.632 362.348V393.085H417.122V359.749C417.122 355.69 416.393 352.179 414.89 349.26C413.386 346.296 411.29 344.015 408.601 342.465L408.647 342.374Z" fill="white"/>
<path d="M474.856 352.863C472.76 348.804 469.798 345.657 465.925 343.377C462.097 341.142 457.495 340.002 452.209 340.002C446.923 340.002 442.366 341.142 438.493 343.377C434.62 345.657 431.658 348.804 429.562 352.863C427.466 356.921 426.418 361.664 426.418 367.045C426.418 372.427 427.466 377.078 429.562 381.183C431.658 385.242 434.62 388.388 438.493 390.668C442.321 392.903 446.923 394.089 452.209 394.089C457.495 394.089 462.097 392.949 465.925 390.668C469.798 388.388 472.76 385.242 474.856 381.183C476.952 377.124 478 372.381 478 367.045C478 361.71 476.952 356.876 474.856 352.863ZM462.006 375.117C461.186 377.489 459.955 379.404 458.361 380.772C456.766 382.14 454.761 382.825 452.346 382.825C449.931 382.825 447.88 382.14 446.24 380.772C444.599 379.404 443.369 377.534 442.549 375.117C441.729 372.7 441.318 370.01 441.318 366.954C441.318 363.899 441.729 361.208 442.549 358.837C443.369 356.465 444.599 354.55 446.24 353.182C447.88 351.814 449.931 351.084 452.346 351.084C454.761 351.084 456.766 351.768 458.361 353.182C459.955 354.55 461.186 356.465 462.006 358.837C462.826 361.208 463.236 363.899 463.236 366.954C463.236 370.01 462.826 372.7 462.006 375.117Z" fill="white"/>
<path d="M383.904 172.817L358.842 63.2758C357.566 57.7577 353.829 53.0605 348.726 50.6435L247.02 1.84697C241.962 -0.615657 235.993 -0.615657 230.935 1.84697L129.274 50.6435C124.171 53.1061 120.48 57.7577 119.158 63.2758L94.0963 172.817C92.8204 178.335 94.1874 184.173 97.7416 188.642L168.052 276.521C171.606 280.945 176.937 283.499 182.588 283.499H295.458C301.108 283.499 306.439 280.945 309.994 276.521L380.304 188.642C383.858 184.218 385.18 178.381 383.949 172.817H383.904ZM356.244 183.169L299.24 254.403C295.686 258.827 290.354 261.381 284.704 261.381H193.205C187.555 261.381 182.223 258.827 178.669 254.403L121.664 183.169C118.11 178.746 116.789 172.908 118.019 167.345L138.342 78.5532C139.618 73.0351 143.354 68.3379 148.458 65.9209L230.843 26.382C235.901 23.9194 241.871 23.9194 246.929 26.382L329.314 65.9209C334.418 68.3835 338.154 73.0351 339.43 78.5532L359.753 167.345C361.029 172.863 359.662 178.746 356.108 183.169H356.244Z" fill="white"/>
<path d="M216.125 127.532C216.672 129.676 217.037 132.138 217.31 134.738C217.082 132.138 216.672 129.676 216.125 127.532Z" fill="#323232"/>
<path d="M194.8 247.289C195.164 247.38 195.574 247.517 195.939 247.608C195.529 247.517 195.164 247.38 194.8 247.289Z" fill="#323232"/>
<path d="M192.521 246.514C191.929 246.286 191.382 246.012 190.835 245.693C191.382 246.012 191.975 246.286 192.521 246.514Z" fill="#323232"/>
<path fill-rule="evenodd" clip-rule="evenodd" d="M327.902 87.9479L345.354 164.153H345.445C346.675 169.716 345.354 175.554 341.8 179.977L304.024 227.178L320.474 206.61C321.34 191.378 318.925 175.782 312.682 160.869C307.338 148.05 299.698 136.865 290.41 127.572C299.677 136.856 307.301 148.025 312.637 160.823C318.879 175.736 321.294 191.333 320.429 206.564L292.86 241.041C289.306 245.465 283.975 248.019 278.324 248.019H238.225C253.445 241.452 265.064 228.272 269.894 212.174C269.894 212.219 270.305 210.806 270.76 208.753C271.535 205.607 272.537 200.864 272.31 197.672C272.218 196.805 272.127 195.939 271.991 195.118C271.763 193.613 271.353 192.199 270.806 190.512L270.396 189.189L282.608 188.87L286.846 156.947L236.585 169.716C232.074 170.491 227.927 172.179 224.327 174.596C220.226 177.332 216.854 181.026 214.485 185.45C214.394 185.632 214.291 185.814 214.189 185.997C214.086 186.179 213.984 186.362 213.892 186.544C213.482 187.319 213.027 188.095 212.48 188.779C211.386 190.192 210.201 191.469 209.017 192.609C204.506 196.942 199.129 199.359 192.977 199.815H192.567C180.674 200.499 169.464 192.792 165.91 181.528C164.817 178.153 164.452 174.687 164.725 171.221L164.224 170.765L144.129 167.254L146.134 176.42L147.911 184.492L161.672 182.622L161.399 184.081C160.032 190.922 159.804 197.717 160.852 204.239C161.353 207.431 162.128 210.532 163.176 213.542L136.291 179.932C134.339 177.476 133.046 174.608 132.49 171.607C132.537 171.889 132.59 172.171 132.646 172.452C132.438 171.562 132.308 170.671 132.242 169.768C132.085 167.888 132.213 165.979 132.646 164.107L142.078 122.972C142.102 122.952 142.126 122.931 142.15 122.911L150.144 87.9479C151.465 82.4298 155.156 77.7781 160.26 75.3155L230.98 41.3404C236.038 38.8778 242.007 38.8778 247.065 41.3404L317.786 75.3155C322.889 77.7325 326.626 82.4298 327.902 87.9479ZM271.717 92.9187C273.631 94.9709 276.866 95.0165 278.871 93.0555C280.922 91.1402 280.967 87.9023 279.008 85.8957C277.094 83.8435 273.904 83.8435 271.854 85.7589C269.803 87.6742 269.758 90.9122 271.717 92.9187ZM296.825 126.073C297.827 127.076 299.422 127.076 300.425 126.119C301.427 125.115 301.427 123.519 300.47 122.516C299.468 121.513 297.873 121.513 296.87 122.47C295.868 123.474 295.868 125.07 296.825 126.073ZM313.32 105.095H312.409L320.93 100.352L312.409 95.1533L307.67 87.127L302.931 95.1533L294.41 100.352L302.931 105.095L308.125 113.623L313.32 105.095ZM199.721 248.064C195.483 248.064 191.428 246.605 188.147 244.051C191.428 246.65 195.483 248.064 199.721 248.064ZM231.201 165.909C231.947 165.648 232.656 165.401 233.486 165.201L235.036 164.791L234.899 142.855L209.062 138.432L208.88 135.878L222.14 134.054L220.727 113.942L207.194 111.571L206.465 101.264L199.584 101.766L200.177 110.34L186.461 107.922L187.919 114.444L192.567 135.559L176.208 132.777L178.532 143.676L187.965 187.593L210.384 181.71C214.804 174.185 222.003 168.986 230.342 166.205C230.639 166.106 230.923 166.007 231.201 165.909Z" fill="white"/>
<path d="M200.632 136.972L202.045 137.246V136.79L200.632 136.972Z" fill="#323232"/>
<path d="M195.939 247.608C195.529 247.517 195.164 247.38 194.8 247.289C195.164 247.38 195.574 247.517 195.939 247.608Z" fill="#595959"/>
<path d="M190.835 245.693C191.382 246.012 191.975 246.286 192.521 246.514C191.929 246.286 191.382 246.012 190.835 245.693Z" fill="#595959"/>
<path d="M162.538 211.307C162.766 212.174 163.085 212.949 163.358 213.815L166.776 218.102C165.227 215.959 163.814 213.679 162.538 211.307Z" fill="black"/>
</svg>
