<svg width="487" height="474" viewBox="0 0 487 474" fill="none" xmlns="http://www.w3.org/2000/svg">
<path d="M485.332 288.944L443.429 105.795C441.296 96.569 435.048 88.7154 426.515 84.6742L256.466 3.08807C248.01 -1.02936 238.029 -1.02936 229.572 3.08807L59.5997 84.6742C51.0667 88.7916 44.8956 96.569 42.6862 105.795L0.783439 288.944C-1.34979 298.171 0.935822 307.93 6.87839 315.403L124.435 462.334C130.377 469.73 139.291 474 148.738 474H337.453C346.9 474 355.814 469.73 361.757 462.334L479.313 315.403C485.255 308.007 487.465 298.247 485.408 288.944H485.332ZM439.086 306.253L343.776 425.353C337.834 432.749 328.92 437.019 319.473 437.019H166.49C157.043 437.019 148.129 432.749 142.186 425.353L46.8765 306.253C40.9339 298.857 38.7245 289.097 40.7815 279.795L74.7608 131.338C76.8941 122.112 83.1414 114.259 91.6743 110.217L229.42 44.1099C237.877 39.9924 247.857 39.9924 256.314 44.1099L394.06 110.217C402.593 114.335 408.84 122.112 410.973 131.338L444.953 279.795C447.086 289.021 444.8 298.857 438.858 306.253H439.086Z" fill="white"/>
<path d="M204.812 213.229C205.726 216.813 206.335 220.93 206.793 225.277C206.412 220.93 205.726 216.813 204.812 213.229Z" fill="white"/>
<path d="M169.156 413.458C169.766 413.611 170.452 413.84 171.061 413.992C170.375 413.84 169.766 413.611 169.156 413.458Z" fill="white"/>
<path d="M165.347 412.162C164.357 411.781 163.442 411.324 162.528 410.79C163.442 411.324 164.433 411.781 165.347 412.162Z" fill="white"/>
<path fill-rule="evenodd" clip-rule="evenodd" d="M391.698 147.046L420.878 274.457H421.03C423.087 283.76 420.878 293.519 414.935 300.916L351.776 379.833L379.28 345.445C380.727 319.978 376.689 293.901 366.252 268.967C357.31 247.519 344.524 228.809 328.981 213.264C344.49 228.793 357.249 247.478 366.176 268.891C376.613 293.824 380.651 319.901 379.203 345.369L333.11 403.013C327.168 410.409 318.254 414.679 308.807 414.679H241.762C267.209 403.699 286.636 381.663 294.712 354.747C294.712 354.823 295.398 352.46 296.16 349.028C297.455 343.767 299.131 335.837 298.75 330.5L298.75 330.5C298.598 329.051 298.445 327.602 298.217 326.23C297.836 323.714 297.15 321.35 296.236 318.529L295.55 316.318L315.968 315.784L323.054 262.41L239.02 283.76C231.477 285.056 224.544 287.877 218.525 291.918C211.669 296.493 206.031 302.669 202.069 310.065C201.917 310.37 201.745 310.675 201.574 310.98C201.402 311.285 201.231 311.59 201.079 311.895C200.393 313.192 199.631 314.488 198.717 315.632C196.888 317.995 194.907 320.13 192.927 322.036C185.384 329.28 176.394 333.321 166.109 334.084H165.423C145.538 335.227 126.796 322.341 120.854 303.508C119.025 297.866 118.416 292.071 118.873 286.276L118.035 285.513L84.4366 279.642L87.7888 294.968L90.7601 308.464L113.769 305.338L113.311 307.778C111.026 319.215 110.645 330.576 112.397 341.48C113.235 346.817 114.53 352.002 116.283 357.035L71.3325 300.839C68.0679 296.734 65.907 291.939 64.976 286.921C65.0558 287.393 65.1435 287.864 65.2376 288.335C64.8904 286.845 64.6723 285.356 64.5624 283.846C64.2986 280.703 64.5137 277.511 65.2375 274.381L81.0082 205.605C81.048 205.571 81.0878 205.537 81.1276 205.503L94.4933 147.046C96.7028 137.82 102.874 130.042 111.407 125.925L229.649 69.1196C238.105 65.0021 248.086 65.0021 256.543 69.1196L374.785 125.925C383.318 129.966 389.565 137.82 391.698 147.046ZM297.76 155.357C300.96 158.788 306.369 158.864 309.721 155.586C313.15 152.383 313.226 146.969 309.95 143.615C306.75 140.183 301.417 140.183 297.988 143.386C294.56 146.588 294.484 152.002 297.76 155.357ZM339.739 210.79C341.415 212.467 344.081 212.467 345.757 210.866C347.434 209.188 347.434 206.52 345.834 204.842C344.158 203.165 341.491 203.165 339.815 204.766C338.139 206.443 338.139 209.112 339.739 210.79ZM367.318 175.715H365.795L380.042 167.785L365.795 159.093L357.871 145.673L349.948 159.093L335.701 167.785L349.948 175.715L358.633 189.974L367.318 175.715ZM177.385 414.755C170.299 414.755 163.519 412.315 158.033 408.045C163.519 412.391 170.299 414.755 177.385 414.755ZM230.018 277.395C231.266 276.958 232.451 276.544 233.839 276.211L236.429 275.525L236.201 238.849L193.003 231.453L192.698 227.183L214.868 224.133L212.507 190.507L189.879 186.543L188.66 169.31L177.156 170.149L178.146 184.484L155.214 180.443L157.652 191.346L165.423 226.649L138.072 221.998L141.958 240.222L157.728 313.649L195.212 303.813C202.602 291.232 214.64 282.54 228.582 277.888C229.079 277.723 229.553 277.557 230.018 277.395Z" fill="white"/>
<path d="M178.908 229.013L181.27 229.47V228.708L178.908 229.013Z" fill="white"/>
<path d="M171.061 413.992C170.375 413.84 169.766 413.611 169.156 413.458C169.766 413.611 170.452 413.84 171.061 413.992Z" fill="white"/>
<path d="M162.528 410.79C163.442 411.323 164.433 411.781 165.347 412.162C164.357 411.781 163.442 411.323 162.528 410.79Z" fill="white"/>
<path d="M115.216 353.298C115.597 354.747 116.13 356.043 116.587 357.492L122.301 364.659C119.711 361.076 117.349 357.263 115.216 353.298Z" fill="white"/>
</svg>
